<svg width="420" height="195" viewBox="0 0 420 195" fill="none" xmlns="http://www.w3.org/2000/svg" role="img" aria-labelledby="title desc">
  <title id="title">Most Used Languages</title>
  <desc id="desc">Language percentages across visible owned repositories.</desc>
  <style>
    .title { fill: #38BDF8; font: 600 15px -apple-system,BlinkMacSystemFont,Segoe UI,sans-serif; }
    .legend { fill: #C9D1D9; font: 12px -apple-system,BlinkMacSystemFont,Segoe UI,sans-serif; }
    .note { fill: #8B949E; font: 10px -apple-system,BlinkMacSystemFont,Segoe UI,sans-serif; }
  </style>
  <rect x="0.5" y="0.5" width="419" height="194" rx="6" fill="#0D1117" stroke="#30363D"/>
  <text x="30" y="40" class="title">My Programming Languages</text>
  <clipPath id="bar"><rect x="30" y="62" width="310" height="8" rx="4"/></clipPath>
  <g clip-path="url(#bar)">
    <rect x="30" y="62" width="310" height="8" fill="#21262D"/>
    <rect x="30" y="62" width="157.29" height="8" fill="#3178c6" /><rect x="187.29" y="62" width="52.61" height="8" fill="#3572A5" /><rect x="239.90" y="62" width="47.58" height="8" fill="#663399" /><rect x="287.48" y="62" width="41.61" height="8" fill="#f1e05a" /><rect x="329.09" y="62" width="9.12" height="8" fill="#178600" /><rect x="338.21" y="62" width="1.82" height="8" fill="#384d54" />
  </g>
        <circle cx="30" cy="96" r="5" fill="#3178c6"/>
        <text x="44" y="100" class="legend">TypeScript (50.74%)</text>
        <circle cx="200" cy="96" r="5" fill="#3572A5"/>
        <text x="214" y="100" class="legend">Python (16.97%)</text>
        <circle cx="30" cy="121" r="5" fill="#663399"/>
        <text x="44" y="125" class="legend">CSS (15.34%)</text>
        <circle cx="200" cy="121" r="5" fill="#f1e05a"/>
        <text x="214" y="125" class="legend">JavaScript (13.42%)</text>
        <circle cx="30" cy="146" r="5" fill="#178600"/>
        <text x="44" y="150" class="legend">C# (2.94%)</text>
        <circle cx="200" cy="146" r="5" fill="#384d54"/>
        <text x="214" y="150" class="legend">Dockerfile (0.59%)</text>
  <text x="30" y="182" class="note">Generated from token-visible repositories</text>
</svg>
