<svg width="420" height="180" viewBox="0 0 420 180" fill="none" xmlns="http://www.w3.org/2000/svg" role="img" aria-labelledby="title desc">
  <title id="title">Most Used Languages</title>
  <desc id="desc">Language percentages across visible owned repositories.</desc>
  <style>
    .title { fill: #38BDF8; font: 600 15px -apple-system,BlinkMacSystemFont,Segoe UI,sans-serif; }
    .legend { fill: #C9D1D9; font: 12px -apple-system,BlinkMacSystemFont,Segoe UI,sans-serif; }
  </style>
  <rect x="0.5" y="0.5" width="419" height="179" rx="6" fill="#0D1117" stroke="#30363D"/>
  <text x="30" y="40" class="title">My Programming Languages</text>
  <clipPath id="bar"><rect x="30" y="62" width="310" height="8" rx="4"/></clipPath>
  <g clip-path="url(#bar)">
    <rect x="30" y="62" width="310" height="8" fill="#21262D"/>
    <rect x="30" y="62" width="134.17" height="8" fill="#3178c6" /><rect x="164.16690425904773" y="62" width="46.20" height="8" fill="#f1e05a" /><rect x="210.3705351548951" y="62" width="44.87" height="8" fill="#3572A5" /><rect x="255.2410821137429" y="62" width="40.57" height="8" fill="#663399" /><rect x="295.8100689532437" y="62" width="38.95" height="8" fill="#178600" /><rect x="334.7571745332445" y="62" width="5.24" height="8" fill="#336790" />
  </g>
  
        <circle cx="30" cy="96" r="5" fill="#3178c6"/>
        <text x="44" y="100" class="legend">TypeScript (43.28%)</text>
        <circle cx="200" cy="96" r="5" fill="#f1e05a"/>
        <text x="214" y="100" class="legend">JavaScript (14.90%)</text>
        <circle cx="30" cy="121" r="5" fill="#3572A5"/>
        <text x="44" y="125" class="legend">Python (14.47%)</text>
        <circle cx="200" cy="121" r="5" fill="#663399"/>
        <text x="214" y="125" class="legend">CSS (13.09%)</text>
        <circle cx="30" cy="146" r="5" fill="#178600"/>
        <text x="44" y="150" class="legend">C# (12.56%)</text>
        <circle cx="200" cy="146" r="5" fill="#336790"/>
        <text x="214" y="150" class="legend">PLpgSQL (1.69%)</text>
</svg>
